# xmcd CD database file
#
# Track frame offsets:
#	150
#	56230
#	122890
#	185110
#	243625
#	313148
#
# Disc length: 4535 seconds
#
# Revision: 0
# Processed by: cddbd v1.5.1PL0 Copyright (c) Steve Scherf et al.
# Submitted via: CDex 1.51
#
DISCID=5e11b506
DTITLE=Various Artist - Mr. Popper Ultra
DYEAR=2005
DGENRE=Mix
TTITLE0=Das Beste von 1993
TTITLE1=Das Beste von 1990
TTITLE2=Das Beste von 1991
TTITLE3=Das Beste das es je gab
TTITLE4=Disco Queens
TTITLE5=Born to be Alive (Bonus)
EXTD=YEAR: 2005
EXTT0=
EXTT1=
EXTT2=
EXTT3=
EXTT4=
EXTT5=
PLAYORDER=
